<?xml version="1.0" encoding="iso-8859-1"?>
<!-- Generator: Adobe Illustrator 19.0.0, SVG Export Plug-In . SVG Version: 6.00 Build 0)  -->
<svg xmlns="http://www.w3.org/2000/svg" xmlns:xlink="http://www.w3.org/1999/xlink" version="1.1" id="Layer_1" x="0px" y="0px" viewBox="0 0 512 512" style="enable-background:new 0 0 512 512;" xml:space="preserve" width="512px" height="512px">
	<g>
		<path d="M504.929,323.637c-6.955-6.953-17.436-8.995-26.489-5.16c-26.922,11.403-55.471,17.185-84.859,17.185    c-58.032,0-112.586-22.597-153.618-63.63c-62.92-62.918-81.149-156.525-46.442-238.474c3.835-9.057,1.793-19.534-5.162-26.487    c-6.953-6.955-17.434-8.992-26.487-5.157c-31.495,13.343-59.788,32.433-84.093,56.74C27.616,108.815-0.006,175.506,0,246.443    c0.006,70.927,27.63,137.61,77.785,187.767C127.948,484.374,194.643,512,265.58,512c70.926,0,137.61-27.622,187.767-77.779    c24.308-24.308,43.397-52.6,56.74-84.093C513.923,341.071,511.883,330.593,504.929,323.637z" fill="#FFFFFF"/>
	</g>
</svg>
