<?xml version="1.0" encoding="iso-8859-1"?>
<!-- Generator: Adobe Illustrator 19.0.0, SVG Export Plug-In . SVG Version: 6.00 Build 0)  -->
<svg xmlns="http://www.w3.org/2000/svg" xmlns:xlink="http://www.w3.org/1999/xlink" version="1.1" id="Capa_1" x="0px" y="0px" viewBox="0 0 512 512" style="enable-background:new 0 0 512 512;" xml:space="preserve" width="512px" height="512px">
<g>
	<g>
		<path d="M361.582,97.052c0,0-98.884,147.764-98.884,202.376c0,54.612,44.271,98.884,98.884,98.884    c54.612,0,98.885-44.272,98.885-98.884S361.582,97.052,361.582,97.052z" fill="#FFFFFF"/>
	</g>
</g>
<g>
	<g>
		<path d="M361.582,428.314c-34.426,0-66.793-13.407-91.136-37.75c-24.343-24.343-37.749-56.709-37.749-91.136    c0-17.027,5.686-38.165,17.896-66.525c8.625-20.035,20.544-43.552,35.425-69.898c6.026-10.67,12.027-20.899,17.682-30.317    c-35.881-62.342-70.055-113.516-70.42-114.06L220.813,0l-12.467,18.629c-0.39,0.581-39.33,58.894-77.734,126.887    c-52.473,92.901-79.079,159.25-79.079,197.203C51.533,436.061,127.472,512,220.813,512c62.182,0,116.637-33.704,146.066-83.801    C365.12,428.27,363.355,428.314,361.582,428.314z" fill="#FFFFFF"/>
	</g>
</g>
<g>
</g>
<g>
</g>
<g>
</g>
<g>
</g>
<g>
</g>
<g>
</g>
<g>
</g>
<g>
</g>
<g>
</g>
<g>
</g>
<g>
</g>
<g>
</g>
<g>
</g>
<g>
</g>
<g>
</g>
</svg>
