<?xml version="1.0" encoding="iso-8859-1"?>
<!-- Generator: Adobe Illustrator 19.0.0, SVG Export Plug-In . SVG Version: 6.00 Build 0)  -->
<svg xmlns="http://www.w3.org/2000/svg" xmlns:xlink="http://www.w3.org/1999/xlink" version="1.1" id="Layer_1" x="0px" y="0px" viewBox="0 0 512 512" style="enable-background:new 0 0 512 512;" xml:space="preserve" width="512px" height="512px">
<g>
	<g>
		<path d="M288.886,306.238H82.659v30h206.227c23.035,0,41.775,18.74,41.775,41.775c0,20.511-16.687,37.199-37.199,37.199    c-18.193,0-32.993-14.8-32.993-32.992h-30c0,34.734,28.259,62.992,62.993,62.992c37.054,0,67.199-30.146,67.199-67.199    C360.661,338.436,328.463,306.238,288.886,306.238z" fill="#FFFFFF"/>
	</g>
</g>
<g>
	<g>
		<path d="M410.329,66.788c-52.21,0-94.686,42.476-94.686,94.686h30c0-35.668,29.018-64.686,64.686-64.686    c39.519,0,71.671,32.151,71.671,71.671c0,43.709-35.56,79.269-79.269,79.269H0v30h402.731C462.982,277.728,512,228.711,512,168.46    C512,112.398,466.391,66.788,410.329,66.788z" fill="#FFFFFF"/>
	</g>
</g>
<g>
	<g>
		<path d="M235.895,102.436c-29.342,0-53.214,23.872-53.214,53.214h30c0-12.8,10.414-23.214,23.214-23.214    c14.648,0,26.564,11.916,26.564,26.564c0,16.657-13.55,30.208-30.207,30.208H82.659v30h149.593    c33.199,0,60.207-27.009,60.207-60.208C292.459,127.811,267.085,102.436,235.895,102.436z" fill="#FFFFFF"/>
	</g>
</g>
<g>
</g>
<g>
</g>
<g>
</g>
<g>
</g>
<g>
</g>
<g>
</g>
<g>
</g>
<g>
</g>
<g>
</g>
<g>
</g>
<g>
</g>
<g>
</g>
<g>
</g>
<g>
</g>
<g>
</g>
</svg>
